<?xml version="1.0" encoding="UTF-8" standalone="no"?>
<!-- Created with Inkscape (http://www.inkscape.org/) -->

<svg
   xmlns:dc="http://purl.org/dc/elements/1.1/"
   xmlns:cc="http://creativecommons.org/ns#"
   xmlns:rdf="http://www.w3.org/1999/02/22-rdf-syntax-ns#"
   xmlns:svg="http://www.w3.org/2000/svg"
   xmlns="http://www.w3.org/2000/svg"
   xmlns:sodipodi="http://sodipodi.sourceforge.net/DTD/sodipodi-0.dtd"
   xmlns:inkscape="http://www.inkscape.org/namespaces/inkscape"
   width="500"
   height="500"
   viewBox="0 0 500.00001 500.00001"
   id="svg4158"
   version="1.1"
   inkscape:version="0.91 r13725"
   sodipodi:docname="yourls.svg">
  <defs
     id="defs4160" />
  <sodipodi:namedview
     id="base"
     pagecolor="#ffffff"
     bordercolor="#666666"
     borderopacity="1.0"
     inkscape:pageopacity="0.0"
     inkscape:pageshadow="2"
     inkscape:zoom="0.65567963"
     inkscape:cx="126.07425"
     inkscape:cy="248.31796"
     inkscape:document-units="px"
     inkscape:current-layer="g4141"
     showgrid="false"
     units="px"
     inkscape:window-width="1299"
     inkscape:window-height="709"
     inkscape:window-x="67"
     inkscape:window-y="27"
     inkscape:window-maximized="1" />
  <metadata
     id="metadata4163">
    <rdf:RDF>
      <cc:Work
         rdf:about="">
        <dc:format>image/svg+xml</dc:format>
        <dc:type
           rdf:resource="http://purl.org/dc/dcmitype/StillImage" />
        <dc:title />
      </cc:Work>
    </rdf:RDF>
  </metadata>
  <g
     inkscape:label="Layer 1"
     inkscape:groupmode="layer"
     id="layer1"
     transform="translate(0,-552.36216)">
    <g
       id="g4141"
       transform="translate(-2.1338678,-89.982254)">
      <path
         sodipodi:nodetypes="cccccccsssssccccccccssscccssscccccsssssccsssccccsssscscccsssssscscccscssssssscscssscccssscsssccsscssssssccscssssscccccssccssccssscssscccssscccs"
         inkscape:connector-curvature="0"
         id="path4147"
         d="m 346.62496,819.11607 c -24.21521,-0.055 -49.36677,13.0039 -62.14173,33.22561 l -4.25265,6.72784 -28.94452,0.003 c -14.11318,10e-4 -21.48912,-0.0349 -25.34227,-0.45463 -1.92658,-0.20989 -2.94153,-0.52921 -3.44442,-0.86189 -0.5029,-0.33269 -0.65083,-0.68194 -0.89031,-1.4365 -0.20228,-0.63729 -0.63,-1.35594 -1.25653,-2.29523 -0.62654,-0.93929 -1.45109,-2.05824 -2.41837,-3.29288 -1.93457,-2.46929 -4.44384,-5.39859 -7.07827,-8.21485 -35.74069,-38.2069 -97.20494,-28.03116 -119.636166,19.79203 -6.874046,14.65537 -8.218592,36.3745 -3.236066,52.13995 7.571043,23.95521 26.742192,42.13853 51.413812,48.78078 l 1.01975,0.27466 0,-0.0947 c 29.68466,7.49681 62.93945,-5.71092 79.38596,-31.76385 l 3.97483,-6.29531 28.22787,0.003 28.2247,0.003 4.33158,6.85729 c 2.59419,4.10636 8.26565,10.59503 12.76428,14.63959 43.10211,38.75257 111.46131,14.11681 121.02529,-43.59992 6.47924,-39.10072 -21.22766,-76.63042 -61.44401,-83.29448 -3.38219,-0.56044 -6.82343,-0.83511 -10.28276,-0.84295 z m -0.003,1.62277 c 3.37521,0.003 6.72911,0.27226 10.02072,0.81768 39.36919,6.5237 66.44216,43.22897 60.11169,81.43179 -9.37336,56.56644 -76.12979,80.62331 -118.34805,42.6654 -4.35789,-3.91803 -10.04464,-10.45477 -12.47696,-14.30494 l -4.80831,-7.60867 -29.11502,-0.003 -29.11818,-0.003 -4.45155,7.04987 c -16.23489,25.7177 -49.40688,38.74668 -78.61562,30.88302 -24.16,-6.5045 -42.887339,-24.2721 -50.293035,-47.70419 -4.827039,-15.2735 -3.49098,-36.79854 3.153967,-50.9655 21.987508,-46.87715 81.981088,-56.80385 116.993658,-19.37529 2.60205,2.78165 5.08795,5.68391 6.98672,8.10751 0.94938,1.21178 1.75341,2.30384 2.34574,3.19185 0.59235,0.88801 0.97333,1.61236 1.06081,1.88797 0.26645,0.83961 0.65106,1.70669 1.54067,2.29522 0.88961,0.58854 2.13155,0.89969 4.16109,1.12078 4.05908,0.44222 11.40022,0.46549 25.51591,0.4641 l 29.83484,-0.003 4.72621,-7.47924 c 12.42926,-19.6745 37.14821,-32.49422 60.7747,-32.46788 z m 1.21233,18.00193 c -7.9152,-0.33173 -15.84328,1.10219 -23.04702,4.4484 -4.64994,2.15993 -9.53089,5.1572 -13.28204,7.95912 -1.87556,1.40094 -3.46542,2.74909 -4.61572,3.9464 -0.57515,0.59865 -1.04199,1.15621 -1.38282,1.68906 -0.34081,0.53286 -0.58406,1.03944 -0.58406,1.62909 0,0.46393 0.30301,0.71005 0.48303,0.82715 0.18004,0.11719 0.34335,0.1796 0.53041,0.23994 0.37409,0.12075 0.8394,0.21465 1.42701,0.30624 1.17523,0.18321 2.82438,0.33954 4.86198,0.47357 4.07521,0.26807 9.68574,0.43253 15.89614,0.43253 14.64037,0 24.05981,0.77561 30.60518,3.08136 6.54537,2.30575 10.28647,6.07078 13.83454,12.41067 7.04114,12.58171 5.85715,25.62206 -3.23607,35.97861 -4.35912,4.96475 -7.89063,7.75783 -13.64194,9.40824 -5.75131,1.65041 -13.78816,2.10767 -26.91765,2.12791 -6.5371,0.01 -12.30921,0.18101 -16.46443,0.45778 -2.0776,0.13836 -3.74528,0.3031 -4.93143,0.49251 -0.59307,0.0947 -1.0621,0.18992 -1.43965,0.31571 -0.18877,0.0629 -0.35578,0.12738 -0.53671,0.24942 -0.18092,0.12204 -0.47041,0.37794 -0.47041,0.82717 0,0.61316 0.27776,1.04422 0.63142,1.55329 0.35366,0.50909 0.83352,1.0665 1.42071,1.67328 1.17439,1.21357 2.77645,2.6246 4.59046,4.06954 3.62804,2.88989 8.07161,5.89838 11.53614,7.54869 14.91873,7.10644 31.14663,6.77397 46.78547,-0.92504 32.85458,-16.17424 39.95679,-59.54641 14.00501,-85.49814 -9.7087,-9.70872 -22.86553,-15.16961 -36.05755,-15.7225 z m -186.68405,0.13885 c -20.28694,-1.5141 -40.20188,9.50326 -50.96866,28.94138 -2.193,3.95909 -3.44496,6.56534 -4.1169,9.93864 -0.67194,3.37329 -0.76759,7.44648 -0.76401,14.45647 1.3e-4,13.50603 0.59446,16.67097 4.39155,23.87736 4.41232,8.374 15.29831,19.74269 22.86708,23.81105 13.33775,7.16933 32.41043,7.98904 46.02458,1.9669 4.23941,-1.87528 10.68439,-6.16194 14.57961,-9.6766 l 8.41375,-7.58974 -28.79615,-0.87137 c -13.33283,-0.40231 -20.03723,-0.61693 -24.16465,-1.31651 -4.12743,-0.69959 -5.68961,-1.81269 -9.16829,-4.25897 -10.5768,-7.43782 -14.18256,-14.83802 -13.56303,-27.83639 0.4358,-9.14451 1.12688,-11.34272 5.23452,-16.50546 2.57693,-3.23896 7.99517,-7.65679 11.75082,-9.57557 3.2034,-1.63664 5.38341,-2.48705 9.68292,-2.974 4.29951,-0.48696 10.69936,-0.5746 22.06199,-0.5746 l 26.84189,0 -5.17452,-5.59127 c -6.35428,-6.86629 -15.5908,-12.01461 -26.44094,-14.7943 -2.88765,-0.73977 -5.79343,-1.21072 -8.69156,-1.42702 z m 186.62092,1.49017 c 12.78971,0.54235 25.5718,5.83027 34.9778,15.23629 25.21206,25.21201 18.33603,67.19609 -13.57565,82.90615 -15.25991,7.51246 -30.88481,7.81585 -45.37737,0.9124 -3.25682,-1.55137 -7.67287,-4.52463 -11.22359,-7.35293 -1.77538,-1.41417 -3.33819,-2.79329 -4.43576,-3.92747 -0.54879,-0.5671 -0.98256,-1.07683 -1.25655,-1.47123 -0.1041,-0.14985 -0.0774,-0.13045 -0.12948,-0.23995 0.23442,-0.0608 0.46758,-0.12495 0.87137,-0.18941 1.09414,-0.17472 2.73611,-0.33701 4.7862,-0.47357 4.10016,-0.27312 9.84998,-0.44464 16.36023,-0.45463 13.16496,-0.0204 21.30418,-0.45335 27.35966,-2.19105 6.05547,-1.7377 9.95926,-4.82949 14.40912,-9.89759 9.49628,-10.8156 10.75015,-24.76046 3.43495,-37.83184 -3.65563,-6.53211 -7.81599,-10.71806 -14.70905,-13.14629 -6.89304,-2.42823 -16.44583,-3.17291 -31.14189,-3.17291 -6.1818,0 -11.76749,-0.1617 -15.78879,-0.42621 -2.01066,-0.13223 -3.63344,-0.29158 -4.71991,-0.46095 -0.41112,-0.064 -0.65802,-0.12931 -0.89347,-0.18941 0.0514,-0.12706 0.036,-0.16349 0.15146,-0.34413 0.25415,-0.39736 0.65723,-0.89144 1.18393,-1.43966 1.05338,-1.09644 2.59287,-2.40802 4.41997,-3.77276 3.65421,-2.7295 8.47133,-5.6843 12.99473,-7.78548 6.95224,-3.22937 14.62812,-4.61279 22.30196,-4.28737 z m -186.74406,0.11994 c 2.80623,0.20993 5.61842,0.6667 8.41374,1.38282 10.59852,2.71523 19.55792,7.73888 25.65482,14.32706 l 2.66461,2.87613 -23.1449,0 c -11.37044,0 -17.79014,0.0795 -22.2451,0.58407 -4.45498,0.50456 -6.96413,1.47002 -10.23542,3.14134 -4.07505,2.08194 -9.47027,6.47897 -12.27806,10.0081 -4.20382,5.28362 -5.14844,8.21098 -5.58811,17.43681 -0.6358,13.33986 3.3882,21.59492 14.2481,29.23183 3.48206,2.44865 5.47451,3.79572 9.82814,4.53364 4.35363,0.73793 11.05556,0.93628 24.38881,1.33862 l 24.77397,0.74823 -5.4271,4.89671 c -3.71664,3.35352 -10.20227,7.65103 -14.1534,9.39876 -13.04691,5.77124 -31.793,4.97291 -44.60389,-1.91321 -7.01096,-3.76854 -18.02698,-15.21702 -22.20091,-23.13858 -3.74387,-7.10537 -4.20529,-9.66166 -4.20529,-23.12912 -0.003,-6.99376 0.10394,-10.98202 0.73245,-14.1376 0.62857,-3.15559 1.7724,-5.54659 3.94641,-9.47139 10.48334,-18.92639 29.78752,-29.58362 49.43113,-28.11422 z"
         style="color:#000000;font-style:normal;font-variant:normal;font-weight:normal;font-stretch:normal;font-size:medium;line-height:normal;font-family:sans-serif;text-indent:0;text-align:start;text-decoration:none;text-decoration-line:none;text-decoration-style:solid;text-decoration-color:#000000;letter-spacing:normal;word-spacing:normal;text-transform:none;direction:ltr;block-progression:tb;writing-mode:lr-tb;baseline-shift:baseline;text-anchor:start;white-space:normal;clip-rule:nonzero;display:inline;overflow:visible;visibility:visible;opacity:1;isolation:auto;mix-blend-mode:normal;color-interpolation:sRGB;color-interpolation-filters:linearRGB;solid-color:#000000;solid-opacity:1;fill:none;fill-opacity:1;fill-rule:nonzero;stroke:#000000;stroke-width:4;stroke-linecap:butt;stroke-linejoin:miter;stroke-miterlimit:4;stroke-dasharray:none;stroke-dashoffset:0;stroke-opacity:1;color-rendering:auto;image-rendering:auto;shape-rendering:auto;text-rendering:auto;enable-background:accumulate" />
      <path
         d="m 228.1397,874.38177 q -7.38769,0 -11.49195,4.76726 -4.10426,4.7357 -4.10426,13.00737 0,8.17696 4.26213,13.16522 4.29369,4.9567 11.58665,4.9567 9.3451,0 14.04921,-9.25039 l 4.92512,2.46256 q -2.7467,5.74596 -7.73496,8.74523 -4.9567,2.99927 -11.52352,2.99927 -6.72467,0 -11.6498,-2.77827 -4.89354,-2.80984 -7.48238,-7.98752 -2.55727,-5.20926 -2.55727,-12.3128 0,-10.63951 5.74596,-16.66963 5.74597,-6.03011 15.91192,-6.03011 7.10353,0 11.8708,2.77827 4.76726,2.77827 7.00882,8.24011 l -5.7144,1.89427 q -1.54699,-3.88326 -4.98825,-5.93539 -3.40971,-2.05215 -8.11382,-2.05215 z"
         id="path5286"
         inkscape:connector-curvature="0"
         style="font-style:normal;font-weight:normal;font-size:medium;line-height:125%;font-family:sans-serif;letter-spacing:0px;word-spacing:0px;fill:#000000;fill-opacity:1;stroke:none;stroke-width:1px;stroke-linecap:butt;stroke-linejoin:miter;stroke-opacity:1" />
      <path
         d="m 255.16471,914.60358 0,-44.48392 6.0301,0 0,39.55879 22.47874,0 0,4.92513 -28.50884,0 z"
         id="path5288"
         inkscape:connector-curvature="0"
         style="font-style:normal;font-weight:normal;font-size:medium;line-height:125%;font-family:sans-serif;letter-spacing:0px;word-spacing:0px;fill:#000000;fill-opacity:1;stroke:none;stroke-width:1px;stroke-linecap:butt;stroke-linejoin:miter;stroke-opacity:1" />
      <path
         d="m 291.81895,914.60358 0,-44.48392 6.03011,0 0,44.48392 -6.03011,0 z"
         id="path5290"
         inkscape:connector-curvature="0"
         style="font-style:normal;font-weight:normal;font-size:medium;line-height:125%;font-family:sans-serif;letter-spacing:0px;word-spacing:0px;fill:#000000;fill-opacity:1;stroke:none;stroke-width:1px;stroke-linecap:butt;stroke-linejoin:miter;stroke-opacity:1" />
    </g>
  </g>
</svg>
