<?xml version="1.0" encoding="UTF-8" standalone="no"?>
<!-- Created with Inkscape (http://www.inkscape.org/) -->

<svg
   xmlns:dc="http://purl.org/dc/elements/1.1/"
   xmlns:cc="http://creativecommons.org/ns#"
   xmlns:rdf="http://www.w3.org/1999/02/22-rdf-syntax-ns#"
   xmlns:svg="http://www.w3.org/2000/svg"
   xmlns="http://www.w3.org/2000/svg"
   xmlns:sodipodi="http://sodipodi.sourceforge.net/DTD/sodipodi-0.dtd"
   xmlns:inkscape="http://www.inkscape.org/namespaces/inkscape"
   width="500"
   height="500"
   viewBox="0 0 499.99997 499.99997"
   id="svg2"
   version="1.1"
   inkscape:version="0.91 r13725"
   enable-background="new"
   sodipodi:docname="jetgo.svg">
  <defs
     id="defs4" />
  <sodipodi:namedview
     id="base"
     pagecolor="#ffffff"
     bordercolor="#666666"
     borderopacity="1.0"
     inkscape:pageopacity="0.0"
     inkscape:pageshadow="2"
     inkscape:zoom="2"
     inkscape:cx="-100.06642"
     inkscape:cy="193.93109"
     inkscape:document-units="px"
     inkscape:current-layer="layer1"
     showgrid="false"
     units="px"
     inkscape:window-width="3200"
     inkscape:window-height="1545"
     inkscape:window-x="0"
     inkscape:window-y="55"
     inkscape:window-maximized="1" />
  <metadata
     id="metadata7">
    <rdf:RDF>
      <cc:Work
         rdf:about="">
        <dc:format>image/svg+xml</dc:format>
        <dc:type
           rdf:resource="http://purl.org/dc/dcmitype/StillImage" />
        <dc:title />
      </cc:Work>
    </rdf:RDF>
  </metadata>
  <g
     inkscape:label="Rocket"
     inkscape:groupmode="layer"
     id="layer1"
     transform="translate(0,-552.36218)"
     style="display:inline">
    <path
       style="fill:#736063;fill-opacity:1;fill-rule:evenodd;stroke:#000000;stroke-width:1.970258;stroke-linecap:round;stroke-linejoin:miter;stroke-miterlimit:4;stroke-dasharray:none;stroke-opacity:1"
       d="m 94.338265,791.26522 c 0,0 30.705165,-70.60642 48.982045,-96.00441 18.27689,-25.398 42.15868,-49.52608 50.20052,-45.97037 8.04183,3.55572 23.15072,38.09698 2.68061,98.29023 -20.47012,60.19324 -32.65471,74.92409 -32.65471,74.92409 0,0 -25.10025,-23.11219 -35.3353,-25.90596 -10.23506,-2.79378 -16.57105,-6.60348 -33.873165,-5.33358 z"
       id="path8858"
       inkscape:connector-curvature="0" />
    <path
       style="fill:#fee312;fill-opacity:1;fill-rule:evenodd;stroke:#000000;stroke-width:1.970258;stroke-linecap:butt;stroke-linejoin:miter;stroke-miterlimit:4;stroke-dasharray:none;stroke-opacity:1"
       d="m 146.48831,690.94315 c 0,0 19.25165,-2.79378 31.92362,2.79378 12.67198,5.58756 26.77654,16.25075 26.77654,16.25075 0,0 1.55643,-10.94292 1.04621,-25.93508 -0.49682,-14.59829 -5.00976,-32.73055 -13.57671,-35.03154 -13.97679,-3.75402 -46.16966,41.92209 -46.16966,41.92209 z"
       id="path8860"
       inkscape:connector-curvature="0"
       sodipodi:nodetypes="cscssc" />
    <flowRoot
       xml:space="preserve"
       id="flowRoot8862"
       style="font-style:normal;font-weight:normal;font-size:40px;line-height:125%;font-family:sans-serif;letter-spacing:0px;word-spacing:0px;fill:#000000;fill-opacity:1;stroke:none;stroke-width:1px;stroke-linecap:butt;stroke-linejoin:miter;stroke-opacity:1"
       transform="translate(51.499994,606.36217)"><flowRegion
         id="flowRegion8864"><rect
           id="rect8866"
           width="103.57143"
           height="42.142857"
           x="-257.5"
           y="294.64285" /></flowRegion><flowPara
         id="flowPara8868">JETHJET</flowPara></flowRoot>    <text
       xml:space="preserve"
       style="font-style:normal;font-weight:normal;font-size:39.40516663px;line-height:125%;font-family:sans-serif;letter-spacing:0px;word-spacing:0px;fill:#ffffff;fill-opacity:1;stroke:#000000;stroke-width:0.98512918px;stroke-linecap:butt;stroke-linejoin:miter;stroke-opacity:1"
       x="-586.50439"
       y="506.62924"
       id="text8870"
       sodipodi:linespacing="125%"
       transform="matrix(0.4897684,-0.88411728,0.84830374,0.51044536,0,0)"><tspan
         sodipodi:role="line"
         id="tspan8872"
         x="-586.50439"
         y="506.62924"
         style="font-style:normal;font-variant:normal;font-weight:bold;font-stretch:normal;font-size:36.94233704px;font-family:sans-serif;-inkscape-font-specification:'sans-serif Bold';fill:#ffffff;fill-opacity:1;stroke:#000000;stroke-width:0.98512918px;stroke-opacity:1">JET</tspan></text>
    <path
       style="fill:#343540;fill-opacity:1;fill-rule:evenodd;stroke:#000000;stroke-width:0.985129;stroke-linecap:butt;stroke-linejoin:miter;stroke-miterlimit:4;stroke-dasharray:none;stroke-opacity:1"
       d="m 93.850882,791.90017 c 0,0 -3.161673,3.73765 -0.121846,4.06368 6.301784,0.67589 27.599074,3.92141 36.188224,9.14328 8.58917,5.22186 28.3901,22.60421 31.3144,22.60421 2.9243,0 2.55877,-3.93669 2.55877,-3.93669 0,0 -25.58764,-22.7312 -31.19256,-24.89002 -5.6049,-2.15883 -27.29347,-8.12736 -38.746988,-6.98446 z"
       id="path8874"
       inkscape:connector-curvature="0"
       sodipodi:nodetypes="cssscsc" />
    <path
       style="display:inline;fill:#343540;fill-opacity:1;fill-rule:evenodd;stroke:#000000;stroke-width:0.985129;stroke-linecap:butt;stroke-linejoin:miter;stroke-miterlimit:4;stroke-dasharray:none;stroke-opacity:1"
       d="m 95.112011,796.4307 c 0,0 -1.610828,4.18663 1.428998,4.51266 6.301781,0.67589 21.051061,4.81937 29.812531,9.59225 8.81249,4.80067 26.75309,19.19198 29.67739,19.19198 2.9243,0 2.04181,-3.30811 2.04181,-3.30811 0,0 -23.69215,-20.03734 -29.29707,-22.19617 -5.6049,-2.15883 -22.21015,-8.93551 -33.663659,-7.79261 z"
       id="path8874-9"
       inkscape:connector-curvature="0"
       sodipodi:nodetypes="cssscsc" />
    <path
       style="display:inline;fill:#343540;fill-opacity:1;fill-rule:evenodd;stroke:#000000;stroke-width:0.985129;stroke-linecap:butt;stroke-linejoin:miter;stroke-miterlimit:4;stroke-dasharray:none;stroke-opacity:1"
       d="m 97.949585,801.7526 c 0,0 -1.352355,4.18663 1.687473,4.51266 6.301782,0.67589 16.312362,5.17854 25.073832,9.95143 8.8125,4.80068 21.49744,14.8818 24.42175,14.8818 2.92429,0 3.16187,-3.39791 3.16187,-3.39791 0,0 -19.55657,-15.63737 -25.16149,-17.79619 -5.6049,-2.15883 -17.72992,-9.2947 -29.183435,-8.15179 z"
       id="path8874-9-2"
       inkscape:connector-curvature="0"
       sodipodi:nodetypes="cssscsc" />
    <path
       style="fill:#e66a40;fill-opacity:1;fill-rule:evenodd;stroke:#000000;stroke-width:0.98512918px;stroke-linecap:butt;stroke-linejoin:miter;stroke-opacity:1"
       d="m 120.84281,817.03383 c 0,0 -15.94576,-8.05163 -21.550674,-6.52776 -5.604911,1.52389 -8.974465,15.0026 -7.188908,23.49314 1.949534,9.27027 -0.852921,23.23917 -0.852921,23.23917 l 7.201954,-14.02065 c 3.655379,-6.3495 8.394319,-9.98046 8.394319,-9.98046 l -3.99423,13.45881 -4.155929,17.5318 c 7.901839,-8.20728 14.583779,-14.58142 17.897829,-21.59335 0,0 -0.72454,5.46413 -1.69931,8.30553 -0.76153,2.6033 -5.2459,15.56859 -5.2459,15.56859 0,0 4.93442,-6.68889 12.31286,-12.95649 3.01761,-3.05976 8.77969,-4.46904 10.5602,-6.28734 8.21042,-8.38467 12.11715,-12.96267 10.37481,-15.75413 -7.47829,-8.55594 -22.0541,-14.47686 -22.0541,-14.47686 z"
       id="path8917"
       inkscape:connector-curvature="0"
       sodipodi:nodetypes="csscccccccccscc" />
  </g>
  <g
     inkscape:groupmode="layer"
     id="layer2"
     inkscape:label="Gopher"
     style="display:inline">
    <path
       style="fill:#e1d7a4;fill-opacity:1;fill-rule:evenodd;stroke:#000000;stroke-width:1.970258;stroke-linecap:butt;stroke-linejoin:miter;stroke-miterlimit:4;stroke-dasharray:none;stroke-opacity:1"
       d="m 112.88977,283.99291 c 0,0 -6.31096,-6.36383 -10.4624,-0.0294 -4.151433,6.33443 7.95868,6.82399 7.95868,6.82399 z"
       id="path8630"
       inkscape:connector-curvature="0" />
    <path
       style="display:inline;fill:#64d9e2;fill-opacity:1;fill-rule:evenodd;stroke:#000000;stroke-width:1.970258;stroke-linecap:butt;stroke-linejoin:miter;stroke-miterlimit:4;stroke-dasharray:none;stroke-opacity:1"
       d="m 134.63907,350.7264 c 0,0 59.27675,54.23647 119.58739,52.44056 60.31064,-1.79591 102.997,-63.42957 115.10717,-91.95056 11.65661,-27.45282 -1.78599,-26.37561 15.70674,-56.30813 14.92297,-25.53528 16.09582,-55.47447 15.99941,-55.39743 0,0 -2.75705,-35.91818 -7.92653,-50.64464 -5.16948,-14.72646 -21.30807,-40.23229 -69.12116,-61.630496 -14.96369,-6.696836 -68.14712,-13.91651 -81.38515,-12.868934 -13.96596,1.105194 -38.51229,20.845345 -46.24704,35.79057 -7.75215,14.97888 -14.28677,35.80554 -15.90206,50.71064 -1.94236,17.92299 -1.70584,19.24704 -6.5307,37.20613 -4.82485,17.95911 -13.78528,34.84064 -44.80219,61.77928 -31.016897,26.93865 -17.92087,61.06092 5.51412,90.87301 z"
       id="path8628"
       inkscape:connector-curvature="0"
       sodipodi:nodetypes="cssscsssssssc" />
  </g>
  <g
     inkscape:groupmode="layer"
     id="layer4"
     inkscape:label="Ears"
     style="display:inline">
    <path
       style="display:inline;fill:#64d9e2;fill-opacity:1;fill-rule:evenodd;stroke:#000000;stroke-width:1.970258;stroke-linecap:butt;stroke-linejoin:miter;stroke-miterlimit:4;stroke-dasharray:none;stroke-opacity:1"
       d="m 395.80218,155.89496 c 0,0 21.93226,-1.65087 25.2221,18.41354 3.28984,20.06441 -20.95749,27.42983 -20.95749,27.42983 z"
       id="path8651"
       inkscape:connector-curvature="0" />
    <path
       style="fill:#64d9e2;fill-opacity:1;fill-rule:evenodd;stroke:#000000;stroke-width:1.970258;stroke-linecap:butt;stroke-linejoin:miter;stroke-miterlimit:4;stroke-dasharray:none;stroke-opacity:1"
       d="m 196.70596,108.14679 c 0,0 -18.27688,-17.524611 -3.41168,-32.255451 14.8652,-14.730835 33.81222,0.793686 34.05591,2.571546 0.10113,0.737737 -5.91539,6.217095 -12.31265,11.484362 -9.01939,7.426248 -18.33158,18.199543 -18.33158,18.199543 z"
       id="path8669"
       inkscape:connector-curvature="0"
       sodipodi:nodetypes="csssc" />
    <path
       style="fill:#000000;fill-opacity:1;fill-rule:evenodd;stroke:#000000;stroke-width:0.98512918px;stroke-linecap:butt;stroke-linejoin:miter;stroke-opacity:1"
       d="m 206.27087,96.876433 c 0,0 -6.51876,-6.286004 -1.94954,-10.31794 4.56922,-4.031931 10.53967,2.190582 10.53967,2.190582 l -8.46829,8.222598 z"
       id="path8673"
       inkscape:connector-curvature="0" />
    <path
       style="fill:#000000;fill-opacity:1;fill-rule:evenodd;stroke:#000000;stroke-width:0.98512918px;stroke-linecap:butt;stroke-linejoin:miter;stroke-opacity:1"
       d="m 395.92398,166.18119 c 0,0 10.3569,-1.2699 11.33167,6.47649 0.97476,7.74639 -7.67629,11.42909 -7.67629,11.42909 z"
       id="path8676"
       inkscape:connector-curvature="0" />
  </g>
  <g
     inkscape:groupmode="layer"
     id="layer5"
     inkscape:label="Eyes"
     style="display:inline">
    <path
       style="fill:#ffffff;fill-opacity:1;fill-rule:evenodd;stroke:#000000;stroke-width:1.970258;stroke-linecap:butt;stroke-linejoin:miter;stroke-miterlimit:4;stroke-dasharray:none;stroke-opacity:1"
       d="m 280.93066,86.213455 c 0,0 9.6497,4.848953 13.18218,9.877499 10.97488,15.622906 5.94968,27.273386 0.43555,36.971296 -5.5141,9.6979 -12.40675,13.28972 -21.36719,13.6489 -8.96044,0.3592 -23.43499,-5.7469 -32.39543,-15.44481 -8.96043,-9.69792 -9.99434,-22.98763 -3.79095,-34.840636 6.20338,-11.853 15.64105,-13.716141 20.20744,-14.434505 11.71085,-1.842302 23.7284,4.222256 23.7284,4.222256 z"
       id="path8688"
       inkscape:connector-curvature="0"
       sodipodi:nodetypes="cssssssc" />
    <path
       style="fill:#ffffff;fill-opacity:1;fill-rule:evenodd;stroke:#000000;stroke-width:1.970258;stroke-linecap:butt;stroke-linejoin:miter;stroke-miterlimit:4;stroke-dasharray:none;stroke-opacity:1"
       d="m 362.03511,117.66552 c 0,0 9.6497,4.84895 13.18218,9.87749 10.97487,15.62291 5.94967,27.27339 0.43556,36.9713 -5.51411,9.69791 -12.40677,13.28972 -21.3672,13.6489 -8.96044,0.35919 -23.43499,-5.7469 -32.39543,-15.44481 -8.96044,-9.69793 -9.99434,-22.98763 -3.79096,-34.84064 6.20338,-11.853 15.64106,-13.71613 20.20745,-14.4345 11.71085,-1.8423 23.7284,4.22226 23.7284,4.22226 z"
       id="path8688-6"
       inkscape:connector-curvature="0"
       sodipodi:nodetypes="cssssssc" />
    <path
       style="display:inline;fill:#000000;fill-opacity:1;fill-rule:evenodd;stroke:#000000;stroke-width:0.98512918px;stroke-linecap:butt;stroke-linejoin:miter;stroke-opacity:1"
       d="m 280.41852,108.99702 c -8.2281,1.16734 -10.76976,7.36323 -8.27118,13.46931 1.90355,4.65195 5.68155,7.2056 8.61581,7.90201 3.0267,0.71836 7.83909,0.19157 9.82201,-2.87346 1.39984,-2.16377 1.81321,-8.38633 1.55084,-10.41627 -0.56892,-4.40183 -2.92937,-7.63261 -11.71748,-8.08159 z"
       id="path8721"
       inkscape:connector-curvature="0"
       sodipodi:nodetypes="cssssc" />
    <path
       style="display:inline;fill:#000000;fill-opacity:1;fill-rule:evenodd;stroke:#000000;stroke-width:0.98512918px;stroke-linecap:butt;stroke-linejoin:miter;stroke-opacity:1"
       d="m 362.27964,145.36871 c -4.60798,0.79763 -10.04768,5.10719 -8.28072,11.60897 1.32239,4.8659 5.68642,7.18364 8.6158,7.90201 2.92937,0.71836 6.3757,1.25714 9.82202,-2.87345 3.44632,-4.1306 2.56667,-8.48531 1.55084,-10.41628 -1.3182,-2.50576 -5.12677,-7.44229 -11.70794,-6.22125 z"
       id="path8721-9"
       inkscape:connector-curvature="0"
       sodipodi:nodetypes="cssssc" />
    <ellipse
       style="fill:#ffffff;fill-opacity:1;stroke:none;stroke-width:4.35799932;stroke-linecap:round;stroke-linejoin:round;stroke-miterlimit:4;stroke-dasharray:none;stroke-opacity:1"
       id="path8750"
       cx="288.3645"
       cy="123.95702"
       rx="2.3556492"
       ry="2.3598573" />
    <ellipse
       style="display:inline;fill:#ffffff;fill-opacity:1;stroke:none;stroke-width:4.35799932;stroke-linecap:round;stroke-linejoin:round;stroke-miterlimit:4;stroke-dasharray:none;stroke-opacity:1"
       id="path8750-1"
       cx="369.23975"
       cy="157.2919"
       rx="2.355649"
       ry="2.3598571" />
  </g>
  <g
     inkscape:groupmode="layer"
     id="layer6"
     inkscape:label="Nose"
     style="display:inline;">
    <path
       style="fill:#000000;fill-opacity:1;fill-rule:evenodd;stroke:#000000;stroke-width:0.98512918px;stroke-linecap:butt;stroke-linejoin:miter;stroke-opacity:1"
       d="m 282.57243,153.53562 c 0,0 2.54996,1.35914 5.48761,2.89789 2.93767,1.53873 6.26303,3.25707 7.81389,3.97543 1.55084,0.71835 4.19191,1.62655 6.7576,2.48983 2.56568,0.86329 5.05597,1.68168 6.30526,2.22046 2.49858,1.07753 3.74623,-2.99173 3.01554,-5.65712 -0.68928,-2.51427 -0.51696,-4.31018 -3.36017,-7.18363 -2.84321,-2.87346 -9.42656,-6.13133 -16.11156,-6.55507 -4.51059,-0.28592 -6.80648,2.42447 -8.18501,3.8612 -1.33614,1.39256 -1.72316,3.95101 -1.72316,3.95101 z"
       id="path8719"
       inkscape:connector-curvature="0"
       sodipodi:nodetypes="cssssssssc" />
  </g>
  <g
     inkscape:groupmode="layer"
     id="layer9"
     inkscape:label="Teeth">
    <path
       style="fill:#ffffff;fill-opacity:1;fill-rule:evenodd;stroke:#000000;stroke-width:1.970258;stroke-linecap:butt;stroke-linejoin:miter;stroke-miterlimit:4;stroke-dasharray:none;stroke-opacity:1"
       d="m 295.80414,177.08831 c 0,0 -10.93446,17.64908 -9.64732,20.10795 1.93191,3.69061 7.69659,7.00498 10.59043,5.19538 0,0 12.38804,-15.36267 8.91266,-17.93544 -4.7502,-3.5165 -8.82188,-7.00871 -9.85577,-7.36789 z"
       id="path8797-5"
       inkscape:connector-curvature="0"
       sodipodi:nodetypes="cscsc" />
    <path
       style="fill:#ffffff;fill-opacity:1;fill-rule:evenodd;stroke:#000000;stroke-width:1.970258;stroke-linecap:butt;stroke-linejoin:miter;stroke-miterlimit:4;stroke-dasharray:none;stroke-opacity:1"
       d="m 281.56825,171.54451 c 0,0 -10.89007,16.77592 -7.69778,19.34602 2.38375,1.91917 5.6252,4.33819 10.01165,4.43344 1.43169,-1.23816 10.98225,-13.87924 9.94835,-18.18943 -1.0339,-4.31017 -11.22833,-5.23085 -12.26222,-5.59003 z"
       id="path8797"
       inkscape:connector-curvature="0"
       sodipodi:nodetypes="cscsc" />
  </g>
  <g
     inkscape:groupmode="layer"
     id="layer8"
     inkscape:label="Stache">
    <path
       style="display:inline;fill:#e1d7a4;fill-opacity:1;fill-rule:evenodd;stroke:#000000;stroke-width:1.970258;stroke-linecap:butt;stroke-linejoin:miter;stroke-miterlimit:4;stroke-dasharray:none;stroke-opacity:1"
       d="m 283.32121,152.42522 c 0,0 -12.58223,3.2564 -14.53176,6.93911 -1.94954,3.68271 -1.00919,8.45682 1.67142,10.36166 2.68061,1.90485 15.0523,1.48405 20.53536,4.02384 5.48305,2.53981 10.31255,8.49293 15.55192,11.4137 5.23937,2.92077 11.20981,1.01592 13.15935,-4.06368 1.94952,-5.0796 -6.57998,-14.49903 -9.15936,-16.45344 -1.07645,-0.81565 -2.22766,-2.19848 -8.00797,-6.57583 -4.83106,-2.99218 -8.59858,-5.36917 -19.21896,-5.64536 z"
       id="path8767"
       inkscape:connector-curvature="0"
       sodipodi:nodetypes="csssssscc" />
  </g>
  <g
     inkscape:groupmode="layer"
     id="layer3"
     inkscape:label="Feet">
    <path
       style="fill:#e1d7a4;fill-opacity:1;fill-rule:evenodd;stroke:#000000;stroke-width:1.970258;stroke-linecap:butt;stroke-linejoin:miter;stroke-miterlimit:4;stroke-dasharray:none;stroke-opacity:1"
       d="m 132.61503,347.01488 c 0,0 0.36554,-10.54017 -3.04615,-15.61976 -3.41168,-5.0796 -5.8486,-5.20659 -9.86952,-3.30175 -4.02091,1.90486 -10.72243,3.17476 -15.47442,2.79379 -4.751993,-0.38097 -8.529217,3.30173 -8.407369,7.11143 0.121845,3.80971 2.07138,6.09553 3.777222,6.98446 1.705847,0.88892 3.213607,-4.23161 4.000007,-6.2969 0.44349,-1.16473 -0.74149,2.09331 -1.81762,4.41141 -0.66877,1.4406 -1.32924,2.23447 -1.20762,3.40936 0.18484,1.78555 3.89907,5.84155 6.70152,6.47649 2.80246,0.63496 7.31076,-4.95261 12.91567,-4.44465 5.60491,0.50796 7.55445,1.65087 12.42828,-1.52388 z"
       id="path8634"
       inkscape:connector-curvature="0"
       sodipodi:nodetypes="cssssssssssc" />
    <path
       style="fill:#e1d7a4;fill-opacity:1;fill-rule:evenodd;stroke:#000000;stroke-width:1.970258;stroke-linecap:butt;stroke-linejoin:miter;stroke-miterlimit:4;stroke-dasharray:none;stroke-opacity:1"
       d="m 257.41428,404.06493 c 0,0 7.49576,7.00405 7.15111,13.46933 -0.34463,6.46527 1.12007,8.17138 5.42796,8.44078 4.30791,0.26937 4.48022,0.80815 6.20338,-3.23265 1.72317,-4.0408 -0.51694,1.07754 0.68927,3.05304 1.20621,1.97551 7.40958,-3.68161 6.89264,-8.88975 -0.40056,-4.03562 -0.39243,-14.85329 -3.70453,-17.66195 -0.96231,-0.81603 -3.05278,0.57335 -4.45002,0.90007 -8.38947,1.96174 -18.31121,3.8834 -18.20981,3.92113 z"
       id="path8639"
       inkscape:connector-curvature="0"
       sodipodi:nodetypes="csssssssc" />
    <path
       style="fill:#e1d7a4;fill-opacity:1;fill-rule:evenodd;stroke:#000000;stroke-width:1.970258;stroke-linecap:butt;stroke-linejoin:miter;stroke-miterlimit:4;stroke-dasharray:none;stroke-opacity:1"
       d="m 267.81237,274.4747 13.64,2.97865 c 0,0 8.70197,7.90199 9.47739,9.24892 0.77543,1.34693 -0.34463,6.19589 2.24011,8.26118 2.58474,2.0653 6.11723,4.0408 7.15112,3.14284 1.03389,-0.89795 3.18785,-6.82446 3.18785,-6.82446 0,0 -2.49859,6.28569 -2.41242,7.09385 0.0862,0.80817 1.72315,0.98775 2.15394,1.16734 0.4308,0.17959 6.37569,-3.77141 6.80649,-10.68566 0.43078,-6.91425 -9.39123,-19.12643 -13.18218,-21.28151 -3.79095,-2.15509 -3.53248,1.52652 -4.65254,2.33468 -1.12005,0.80816 -6.54801,5.9265 -8.6158,6.37548 -2.0678,0.44898 -15.79396,-1.81131 -15.79396,-1.81131 z"
       id="path8643"
       inkscape:connector-curvature="0"
       sodipodi:nodetypes="ccsssccsssssc" />
    <path
       style="display:inline;fill:#e1d7a4;fill-opacity:1;fill-rule:evenodd;stroke:#000000;stroke-width:1.970258;stroke-linecap:butt;stroke-linejoin:miter;stroke-miterlimit:4;stroke-dasharray:none;stroke-opacity:1"
       d="m 369.57485,311.87038 c 0,0 5.75722,8.2861 7.52398,9.33377 1.76677,1.04767 3.95999,1.17464 5.57446,0.98417 1.61445,-0.19049 2.04091,-0.76194 2.92428,-1.9366 0.88339,-1.17466 -0.36552,-5.52407 -0.36552,-5.52407 l 0.9443,6.00028 c 0,0 2.43692,0.0318 4.08185,-1.55563 1.64491,-1.58737 1.37074,-7.07969 0.12183,-9.07978 -0.88998,-1.42527 -6.34305,-6.65511 -9.77877,-9.53205 -1.38569,-1.16033 -5.95417,-4.76647 -6.25183,-4.75735 -0.19506,0.67555 -0.96557,4.50244 -1.97049,8.14905 -1.11282,4.0381 -2.80409,7.91821 -2.80409,7.91821 z"
       id="path8649"
       inkscape:connector-curvature="0"
       sodipodi:nodetypes="csssccssscsc" />
  </g>
</svg>
