<?xml version="1.0" encoding="UTF-8" standalone="no"?>
<svg
   xmlns:dc="http://purl.org/dc/elements/1.1/"
   xmlns:cc="http://creativecommons.org/ns#"
   xmlns:rdf="http://www.w3.org/1999/02/22-rdf-syntax-ns#"
   xmlns:svg="http://www.w3.org/2000/svg"
   xmlns="http://www.w3.org/2000/svg"
   version="1.1"
   id="svg4159"
   viewBox="0 0 744.09448819 1052.3622047"
   height="297mm"
   width="210mm">
  <defs
     id="defs4161" />
  <metadata
     id="metadata4164">
    <rdf:RDF>
      <cc:Work
         rdf:about="">
        <dc:format>image/svg+xml</dc:format>
        <dc:type
           rdf:resource="http://purl.org/dc/dcmitype/StillImage" />
        <dc:title></dc:title>
      </cc:Work>
    </rdf:RDF>
  </metadata>
  <g
     id="layer1">
    <path
       id="path3348"
       d="m 58.6303,18.099321 22.7915,0.1894 20.89756,27.58979 c 0,0 37.94384,3.21987 45.77252,2.77792 7.82869,-0.44194 90.59806,-0.69448 90.59806,-0.69448 0,0 23.23351,0.31568 26.76904,-0.56821 6.48547,5.16799 15.88169,7.17499 22.92714,9.21364 9.65717,2.79437 16.15314,4.54969 16.15314,4.54969 l 10.54347,0.63135 c 0,0 0.50507,0.44194 0.0631,1.01015 -0.44194,0.56821 -11.23795,0.12627 -11.23795,0.12627 0,0 -20.32932,4.04061 -32.19861,4.48255 -11.86929,0.44194 -110.54857,0.63135 -110.54857,0.63135 0,0 -0.10865,0.15273 -0.31567,1.32582 -0.1439,0.81539 -35.19322,-2.75825 -59.29017,-2.75825 -11.10956,0 -20.93926,1.14843 -25.75206,0.35914 -15.7836,-2.58851 -42.6054,-10.67929 -42.5475,-11.40056 0.058,-0.72127 0.2474,-2.11023 3.9092,-2.61531 3.6618,-0.50507 21.7183,-2.14657 21.7183,-2.14657 l 0.5682,-4.86136 6.9448,-0.31567 0.063,-0.75762 -7.3867,-0.63134 -4.672,-4.10375 z"
       style="display:inline;opacity:0.37900002;fill:#ffffff;fill-opacity:1;fill-rule:evenodd;stroke:#000000;stroke-width:1px;stroke-linecap:butt;stroke-linejoin:miter;stroke-opacity:1" />
  </g>
</svg>
